<mxfile host="app.diagrams.net" agent="Mozilla/5.0 (Macintosh; Intel Mac OS X 10_15_7) AppleWebKit/605.1.15 (KHTML, like Gecko) Version/18.0 Safari/605.1.15" version="26.0.14">
  <diagram name="LEU-UHI" id="5-YcaGYEjPbzkdf8p1iu">
    <mxGraphModel grid="1" page="1" gridSize="10" guides="1" tooltips="1" connect="1" arrows="1" fold="1" pageScale="1" pageWidth="3300" pageHeight="4681" math="0" shadow="0">
      <root>
        <mxCell id="Lx3dMDMzQVTXeGKKECox-0" />
        <mxCell id="Lx3dMDMzQVTXeGKKECox-1" parent="Lx3dMDMzQVTXeGKKECox-0" />
        <mxCell id="Lx3dMDMzQVTXeGKKECox-2" value="with&amp;nbsp;" style="swimlane;html=1;childLayout=stackLayout;resizeParent=1;resizeParentMax=0;horizontal=0;startSize=20;horizontalStack=0;whiteSpace=wrap;movable=1;resizable=1;rotatable=1;deletable=1;editable=1;locked=0;connectable=1;container=1;" vertex="1" parent="Lx3dMDMzQVTXeGKKECox-1">
          <mxGeometry x="150" y="-4380" width="1820" height="2130" as="geometry">
            <mxRectangle x="99" y="-2240" width="40" height="50" as="alternateBounds" />
          </mxGeometry>
        </mxCell>
        <mxCell id="pBVGRH1MDpd358sIF_8C-1" value="&lt;div&gt;Validated layers published and made available through WMS and WFS protocols, as well as file formats&lt;br&gt;&lt;/div&gt;" style="swimlane;html=1;startSize=58;horizontal=0;whiteSpace=wrap;" vertex="1" parent="Lx3dMDMzQVTXeGKKECox-1">
          <mxGeometry x="170" y="-2590" width="1800" height="340" as="geometry" />
        </mxCell>
        <mxCell id="pBVGRH1MDpd358sIF_8C-2" value="&lt;h6 style=&quot;line-height: 90%; font-size: 8px;&quot;&gt;&lt;font style=&quot;font-size: 8px;&quot;&gt;&lt;font style=&quot;font-size: 8px;&quot; face=&quot;Arial&quot;&gt;&lt;span style=&quot;font-weight: 400;&quot;&gt;Decision ready information:&lt;/span&gt;&lt;/font&gt;&lt;span style=&quot;background-color: initial; font-weight: 400; font-family: Arial;&quot;&gt;&amp;nbsp;&lt;/span&gt;&lt;/font&gt;&lt;span style=&quot;background-color: initial; font-family: Arial; font-weight: 400;&quot;&gt;1)Surface materials map, and&amp;nbsp;&lt;/span&gt;&lt;span style=&quot;background-color: initial; font-family: Arial; font-weight: 400;&quot;&gt;2)Hot spots map of Leuven 3) Vulnerability index map of Leuven.&amp;nbsp;&lt;/span&gt;&lt;/h6&gt;&lt;p&gt;&lt;/p&gt;" style="points=[[0.25,0,0],[0.5,0,0],[0.75,0,0],[1,0.25,0],[1,0.5,0],[1,0.75,0],[0.75,1,0],[0.5,1,0],[0.25,1,0],[0,0.75,0],[0,0.5,0],[0,0.25,0]];shape=mxgraph.bpmn.task;whiteSpace=wrap;rectStyle=rounded;size=10;html=1;container=1;expand=0;collapsible=0;taskMarker=abstract;fillColor=#ff9129;" vertex="1" parent="pBVGRH1MDpd358sIF_8C-1">
          <mxGeometry x="1490" y="137.5" width="240" height="52.5" as="geometry" />
        </mxCell>
        <mxCell id="VDrF4sD4afR3QMWUaSCJ-11" value="&lt;div style=&quot;&quot;&gt;&lt;div&gt;&lt;font color=&quot;#33001a&quot;&gt;The maps will be published and accessible to the public using ArcGIS tools. The data will be available to the city, and can be findable from the metadata. A process of sharing data will be laid out later by the city.&lt;/font&gt;&lt;/div&gt;&lt;/div&gt;" style="text;html=1;strokeColor=none;fillColor=#d5e8d4;align=center;verticalAlign=middle;rounded=0;whiteSpace=wrap;spacing=2;fontSize=6;labelBackgroundColor=none;" vertex="1" parent="pBVGRH1MDpd358sIF_8C-1">
          <mxGeometry x="1528.5" y="196" width="163" height="40" as="geometry" />
        </mxCell>
        <mxCell id="pBVGRH1MDpd358sIF_8C-31" value="" style="points=[[0.145,0.145,0],[0.5,0,0],[0.855,0.145,0],[1,0.5,0],[0.855,0.855,0],[0.5,1,0],[0.145,0.855,0],[0,0.5,0]];shape=mxgraph.bpmn.event;html=1;verticalLabelPosition=bottom;labelBackgroundColor=#ffffff;verticalAlign=top;align=center;perimeter=ellipsePerimeter;outlineConnect=0;aspect=fixed;outline=end;symbol=terminate2;" vertex="1" parent="pBVGRH1MDpd358sIF_8C-1">
          <mxGeometry x="1760" y="148.75" width="30" height="30" as="geometry" />
        </mxCell>
        <mxCell id="pBVGRH1MDpd358sIF_8C-32" style="edgeStyle=orthogonalEdgeStyle;rounded=0;orthogonalLoop=1;jettySize=auto;html=1;entryX=0;entryY=0.5;entryDx=0;entryDy=0;entryPerimeter=0;" edge="1" parent="pBVGRH1MDpd358sIF_8C-1" source="pBVGRH1MDpd358sIF_8C-2" target="pBVGRH1MDpd358sIF_8C-31">
          <mxGeometry relative="1" as="geometry" />
        </mxCell>
        <UserObject label="&lt;div&gt;&lt;div&gt;Spectral signal extraction to identify and extract the regions of interest within the hyperspectral images.&lt;/div&gt;&lt;div&gt;Calculation of Spectral Indices&lt;/div&gt;&lt;/div&gt;" link="https://usage.geocat.live/catalogue/srv/eng/catalog.search#/metadata/582d7122-5924-467b-ae28-a07819c98fb5" id="Lx3dMDMzQVTXeGKKECox-3">
          <mxCell style="swimlane;html=1;startSize=58;horizontal=0;whiteSpace=wrap;" vertex="1" parent="Lx3dMDMzQVTXeGKKECox-1">
            <mxGeometry x="170" y="-4380" width="1800" height="440" as="geometry">
              <mxRectangle x="20" width="1133" height="30" as="alternateBounds" />
            </mxGeometry>
          </mxCell>
        </UserObject>
        <mxCell id="Lx3dMDMzQVTXeGKKECox-4" style="edgeStyle=orthogonalEdgeStyle;rounded=0;orthogonalLoop=1;jettySize=auto;html=1;" edge="1" parent="Lx3dMDMzQVTXeGKKECox-3" source="Lx3dMDMzQVTXeGKKECox-5">
          <mxGeometry relative="1" as="geometry">
            <mxPoint x="135" y="125" as="targetPoint" />
          </mxGeometry>
        </mxCell>
        <mxCell id="Lx3dMDMzQVTXeGKKECox-5" value="" style="points=[[0.145,0.145,0],[0.5,0,0],[0.855,0.145,0],[1,0.5,0],[0.855,0.855,0],[0.5,1,0],[0.145,0.855,0],[0,0.5,0]];shape=mxgraph.bpmn.event;html=1;verticalLabelPosition=bottom;labelBackgroundColor=#ffffff;verticalAlign=top;align=center;perimeter=ellipsePerimeter;outlineConnect=0;aspect=fixed;outline=standard;symbol=general;" vertex="1" parent="Lx3dMDMzQVTXeGKKECox-3">
          <mxGeometry x="74" y="110" width="30" height="30" as="geometry" />
        </mxCell>
        <mxCell id="Lx3dMDMzQVTXeGKKECox-7" value="&lt;h6 style=&quot;line-height: 100%; font-size: 8px;&quot;&gt;&lt;font style=&quot;font-size: 8px;&quot; face=&quot;Arial&quot;&gt;&lt;span style=&quot;font-size: 8px; font-weight: 400;&quot;&gt;Reduce data dimensionality and emphasize relevant spectral information.&lt;/span&gt;&lt;/font&gt;&lt;span style=&quot;font-weight: normal;&quot;&gt;&amp;nbsp;Use mathematical formulas to combine reflectance values from different bands and extract specific information about the target of interest, like NDVI and NDWI -&amp;nbsp;&lt;/span&gt;&lt;span style=&quot;font-size: 8.04px;&quot;&gt;&lt;a href=&quot;https://usage.geocat.live/catalogue/srv/eng/catalog.search#/metadata/7759f9f2-713a-4642-af56-b9f99306c13c&quot;&gt;Python, spectral indices&lt;/a&gt;&lt;/span&gt;&lt;span style=&quot;font-size: 8.04px; font-weight: 400;&quot;&gt;;&amp;nbsp;&lt;/span&gt;&lt;span style=&quot;font-size: 8.04px;&quot;&gt;&lt;a href=&quot;https://usage.geocat.live/catalogue/srv/eng/catalog.search#/metadata/caca9b99-3f3e-4d03-a3e8-9df00c238dd8&quot;&gt;En-MAP Box QGIS Plugin&lt;/a&gt;&lt;/span&gt;&lt;/h6&gt;" style="points=[[0.25,0,0],[0.5,0,0],[0.75,0,0],[1,0.25,0],[1,0.5,0],[1,0.75,0],[0.75,1,0],[0.5,1,0],[0.25,1,0],[0,0.75,0],[0,0.5,0],[0,0.25,0]];shape=mxgraph.bpmn.task;whiteSpace=wrap;rectStyle=rounded;size=10;html=1;container=1;expand=0;collapsible=0;taskMarker=abstract;fillColor=#ff9b29;fontColor=#000000;strokeColor=#BD7000;" vertex="1" parent="Lx3dMDMzQVTXeGKKECox-3">
          <mxGeometry x="135" y="90" width="200" height="70" as="geometry" />
        </mxCell>
        <UserObject label="&lt;div style=&quot;line-height: 100%; font-size: 8px;&quot;&gt;&lt;div style=&quot;line-height: 100%;&quot;&gt;&lt;div style=&quot;line-height: 100%;&quot;&gt;NDVI, NDWI&lt;/div&gt;&lt;div style=&quot;line-height: 100%;&quot;&gt;Reduced spectral bands&lt;/div&gt;&lt;/div&gt;&lt;div style=&quot;line-height: 100%;&quot;&gt;&lt;span style=&quot;font-family: Arial; background-color: initial;&quot;&gt;&amp;nbsp;&lt;/span&gt;&lt;a style=&quot;font-family: Arial; background-color: initial;&quot; href=&quot;https://usage.geocat.live/catalogue/srv/eng/catalog.search#/metadata/582d7122-5924-467b-ae28-a07819c98fb5&quot;&gt;link to dataset metadata&lt;/a&gt;&lt;br&gt;&lt;/div&gt;&lt;/div&gt;" link="https://usage.geocat.live/catalogue/srv/eng/catalog.search#/metadata/436a943d-c3ea-4bad-a057-ef0ff4dcd66c" id="Lx3dMDMzQVTXeGKKECox-10">
          <mxCell style="shape=mxgraph.bpmn.data;labelPosition=center;verticalLabelPosition=bottom;align=center;verticalAlign=top;size=15;html=1;" vertex="1" parent="Lx3dMDMzQVTXeGKKECox-3">
            <mxGeometry x="227.5" y="199" width="30" height="32" as="geometry" />
          </mxCell>
        </UserObject>
        <mxCell id="Lx3dMDMzQVTXeGKKECox-11" style="edgeStyle=orthogonalEdgeStyle;rounded=0;orthogonalLoop=1;jettySize=auto;html=1;entryX=0;entryY=0;entryDx=7.5;entryDy=0;entryPerimeter=0;dashed=1;" edge="1" parent="Lx3dMDMzQVTXeGKKECox-3" source="Lx3dMDMzQVTXeGKKECox-7" target="Lx3dMDMzQVTXeGKKECox-10">
          <mxGeometry relative="1" as="geometry" />
        </mxCell>
        <UserObject label="&lt;div style=&quot;&quot;&gt;&lt;div style=&quot;&quot;&gt;&lt;font face=&quot;Arial&quot;&gt;&lt;span style=&quot;font-size: 8px;&quot;&gt;Regions of interest&lt;/span&gt;&lt;/font&gt;&lt;br&gt;&lt;/div&gt;&lt;div style=&quot;font-size: 8px;&quot;&gt;&lt;font style=&quot;font-size: 8px;&quot; face=&quot;Arial&quot;&gt;&amp;nbsp;&lt;a href=&quot;https://usage.geocat.live/catalogue/srv/eng/catalog.search#/metadata/c59feb6e-cc22-439f-8633-03c54cc51970&quot;&gt;link to dataset metadata&lt;/a&gt;&lt;/font&gt;&lt;/div&gt;&lt;/div&gt;" id="Lx3dMDMzQVTXeGKKECox-12">
          <mxCell style="shape=mxgraph.bpmn.data;labelPosition=center;verticalLabelPosition=bottom;align=center;verticalAlign=top;size=15;html=1;" vertex="1" parent="Lx3dMDMzQVTXeGKKECox-3">
            <mxGeometry x="633" y="321" width="30" height="34" as="geometry" />
          </mxCell>
        </UserObject>
        <mxCell id="Lx3dMDMzQVTXeGKKECox-14" style="edgeStyle=orthogonalEdgeStyle;rounded=0;orthogonalLoop=1;jettySize=auto;html=1;entryX=0.25;entryY=0;entryDx=0;entryDy=0;entryPerimeter=0;exitX=0;exitY=0;exitDx=30.000000000000004;exitDy=23.5;exitPerimeter=0;dashed=1;" edge="1" parent="Lx3dMDMzQVTXeGKKECox-3" source="Lx3dMDMzQVTXeGKKECox-10" target="simqcxI7T72nkkA-hT8v-0">
          <mxGeometry relative="1" as="geometry">
            <mxPoint x="506" y="296.5" as="targetPoint" />
          </mxGeometry>
        </mxCell>
        <mxCell id="Lx3dMDMzQVTXeGKKECox-16" style="edgeStyle=orthogonalEdgeStyle;rounded=0;orthogonalLoop=1;jettySize=auto;html=1;entryX=0.5;entryY=0;entryDx=0;entryDy=0;entryPerimeter=0;" edge="1" parent="Lx3dMDMzQVTXeGKKECox-3" source="Lx3dMDMzQVTXeGKKECox-7" target="simqcxI7T72nkkA-hT8v-0">
          <mxGeometry relative="1" as="geometry">
            <mxPoint x="644.5" y="276" as="targetPoint" />
          </mxGeometry>
        </mxCell>
        <mxCell id="Lx3dMDMzQVTXeGKKECox-17" style="edgeStyle=orthogonalEdgeStyle;rounded=0;orthogonalLoop=1;jettySize=auto;html=1;entryX=0;entryY=0;entryDx=7.5;entryDy=0;entryPerimeter=0;exitX=0.5;exitY=1;exitDx=0;exitDy=0;exitPerimeter=0;dashed=1;" edge="1" parent="Lx3dMDMzQVTXeGKKECox-3" source="simqcxI7T72nkkA-hT8v-0" target="Lx3dMDMzQVTXeGKKECox-12">
          <mxGeometry relative="1" as="geometry">
            <mxPoint x="644.5" y="317" as="sourcePoint" />
          </mxGeometry>
        </mxCell>
        <UserObject label="&lt;div style=&quot;&quot;&gt;&lt;div style=&quot;&quot;&gt;&lt;font face=&quot;Arial&quot;&gt;&lt;span style=&quot;font-size: 8px;&quot;&gt;Hyperspectral Image 2021&lt;/span&gt;&lt;/font&gt;&lt;br&gt;&lt;/div&gt;&lt;div style=&quot;font-size: 8px;&quot;&gt;&lt;font face=&quot;Arial&quot; style=&quot;font-size: 8px;&quot;&gt;&amp;nbsp; &lt;a href=&quot;https://usage.geocat.live/catalogue/srv/eng/catalog.search#/metadata/7750576f-23af-48ce-941a-40dfdb3e5bc3&quot;&gt;link to dataset metadata&lt;/a&gt;&lt;/font&gt;&lt;/div&gt;&lt;/div&gt;" id="TJ6-mpOAyWIwksYSqs58-0">
          <mxCell style="shape=mxgraph.bpmn.data;labelPosition=center;verticalLabelPosition=bottom;align=center;verticalAlign=top;size=15;html=1;" vertex="1" parent="Lx3dMDMzQVTXeGKKECox-3">
            <mxGeometry x="221" y="10" width="28" height="34" as="geometry" />
          </mxCell>
        </UserObject>
        <mxCell id="TJ6-mpOAyWIwksYSqs58-1" style="edgeStyle=orthogonalEdgeStyle;rounded=0;orthogonalLoop=1;jettySize=auto;html=1;entryX=0.5;entryY=0;entryDx=0;entryDy=0;entryPerimeter=0;dashed=1;" edge="1" parent="Lx3dMDMzQVTXeGKKECox-3" source="TJ6-mpOAyWIwksYSqs58-0" target="Lx3dMDMzQVTXeGKKECox-7">
          <mxGeometry relative="1" as="geometry" />
        </mxCell>
        <mxCell id="simqcxI7T72nkkA-hT8v-0" value="&lt;h6 style=&quot;line-height: 100%;&quot;&gt;&lt;font face=&quot;Arial&quot;&gt;&lt;span style=&quot;font-size: 8px; font-weight: 400;&quot;&gt;Manually select regions of interest. Supported by visualisation and tools to compare the spectra&lt;/span&gt;&lt;/font&gt;&lt;span style=&quot;font-size: 8.04px; font-weight: 400;&quot;&gt;;&amp;nbsp;&lt;/span&gt;&lt;span style=&quot;font-size: 8.04px;&quot;&gt;&lt;a href=&quot;https://usage.geocat.live/catalogue/srv/eng/catalog.search#/metadata/caca9b99-3f3e-4d03-a3e8-9df00c238dd8&quot;&gt;En-MAP Box QGIS Plugin&lt;/a&gt;&lt;/span&gt;&lt;/h6&gt;" style="points=[[0.25,0,0],[0.5,0,0],[0.75,0,0],[1,0.25,0],[1,0.5,0],[1,0.75,0],[0.75,1,0],[0.5,1,0],[0.25,1,0],[0,0.75,0],[0,0.5,0],[0,0.25,0]];shape=mxgraph.bpmn.task;whiteSpace=wrap;rectStyle=rounded;size=10;html=1;container=1;expand=0;collapsible=0;taskMarker=abstract;fillColor=#ff9b29;fontColor=#000000;strokeColor=#BD7000;" vertex="1" parent="Lx3dMDMzQVTXeGKKECox-3">
          <mxGeometry x="540" y="251" width="200" height="37" as="geometry" />
        </mxCell>
        <mxCell id="Lx3dMDMzQVTXeGKKECox-19" value="&lt;div&gt;Material end member Identification, by selecting the most significant bands based on criteria such as variance, correlation with specific targets, or domain-specific knowledge&lt;/div&gt;" style="swimlane;html=1;startSize=58;horizontal=0;autosize=0;fixedWidth=0;whiteSpace=wrap;" vertex="1" parent="Lx3dMDMzQVTXeGKKECox-1">
          <mxGeometry x="170" y="-3940" width="1800" height="290" as="geometry" />
        </mxCell>
        <mxCell id="Lx3dMDMzQVTXeGKKECox-20" value="&lt;h6 style=&quot;line-height: 90%;&quot;&gt;&lt;font style=&quot;&quot;&gt;&lt;span style=&quot;font-size: 8px; font-weight: 400;&quot;&gt;Material endmember identification, and labelling training data.&amp;nbsp;&lt;a href=&quot;https://usage.geocat.live/catalogue/srv/eng/catalog.search#/metadata/7759f9f2-713a-4642-af56-b9f99306c13c&quot;&gt;Spectral Python&lt;/a&gt;&lt;/span&gt;&lt;/font&gt;&lt;/h6&gt;&lt;p&gt;&lt;/p&gt;" style="points=[[0.25,0,0],[0.5,0,0],[0.75,0,0],[1,0.25,0],[1,0.5,0],[1,0.75,0],[0.75,1,0],[0.5,1,0],[0.25,1,0],[0,0.75,0],[0,0.5,0],[0,0.25,0]];shape=mxgraph.bpmn.task;whiteSpace=wrap;rectStyle=rounded;size=10;html=1;container=1;expand=0;collapsible=0;taskMarker=abstract;fillColor=#ff9129;" vertex="1" parent="Lx3dMDMzQVTXeGKKECox-19">
          <mxGeometry x="740" y="119" width="141" height="25.5" as="geometry" />
        </mxCell>
        <UserObject label="&lt;div style=&quot;&quot;&gt;&lt;div style=&quot;&quot;&gt;&lt;div&gt;&lt;span style=&quot;font-size: 8px; background-color: initial;&quot;&gt;Training data&lt;/span&gt;&lt;/div&gt;&lt;div&gt;&lt;span style=&quot;font-size: 8px; font-family: Arial; background-color: initial;&quot;&gt;&amp;nbsp;&lt;/span&gt;&lt;a href=&quot;https://usage.geocat.live/catalogue/srv/eng/catalog.search#/metadata/59928240-3aff-4666-9f36-0c31530d90b4&quot; style=&quot;font-size: 8px; font-family: Arial; background-color: initial;&quot;&gt;link to dataset metadata&lt;/a&gt;&lt;br&gt;&lt;/div&gt;&lt;/div&gt;&lt;/div&gt;" id="Lx3dMDMzQVTXeGKKECox-21">
          <mxCell style="shape=mxgraph.bpmn.data;labelPosition=center;verticalLabelPosition=bottom;align=center;verticalAlign=top;size=15;html=1;" vertex="1" parent="Lx3dMDMzQVTXeGKKECox-19">
            <mxGeometry x="803.5" y="170.25" width="28" height="34" as="geometry" />
          </mxCell>
        </UserObject>
        <mxCell id="Lx3dMDMzQVTXeGKKECox-22" style="edgeStyle=orthogonalEdgeStyle;rounded=0;orthogonalLoop=1;jettySize=auto;html=1;entryX=0;entryY=0;entryDx=7.5;entryDy=0;entryPerimeter=0;dashed=1;" edge="1" parent="Lx3dMDMzQVTXeGKKECox-19" source="Lx3dMDMzQVTXeGKKECox-20" target="Lx3dMDMzQVTXeGKKECox-21">
          <mxGeometry relative="1" as="geometry" />
        </mxCell>
        <UserObject label="&lt;div style=&quot;&quot;&gt;&lt;div style=&quot;&quot;&gt;&lt;font face=&quot;Arial&quot;&gt;&lt;span style=&quot;font-size: 8px;&quot;&gt;Selected Spectral libraries&lt;/span&gt;&lt;/font&gt;&lt;br&gt;&lt;/div&gt;&lt;div style=&quot;font-size: 8px;&quot;&gt;&lt;font style=&quot;font-size: 8px;&quot; face=&quot;Arial&quot;&gt;&amp;nbsp;&lt;a href=&quot;https://speclib.jpl.nasa.gov/&quot;&gt;link to dataset metadata&lt;/a&gt;&lt;/font&gt;&lt;/div&gt;&lt;/div&gt;" id="simqcxI7T72nkkA-hT8v-1">
          <mxCell style="shape=mxgraph.bpmn.data;labelPosition=center;verticalLabelPosition=bottom;align=center;verticalAlign=top;size=15;html=1;" vertex="1" parent="Lx3dMDMzQVTXeGKKECox-19">
            <mxGeometry x="870" y="20" width="30" height="34" as="geometry" />
          </mxCell>
        </UserObject>
        <mxCell id="simqcxI7T72nkkA-hT8v-2" style="edgeStyle=orthogonalEdgeStyle;rounded=0;orthogonalLoop=1;jettySize=auto;html=1;entryX=0.75;entryY=0;entryDx=0;entryDy=0;entryPerimeter=0;dashed=1;" edge="1" parent="Lx3dMDMzQVTXeGKKECox-19" source="simqcxI7T72nkkA-hT8v-1" target="Lx3dMDMzQVTXeGKKECox-20">
          <mxGeometry relative="1" as="geometry" />
        </mxCell>
        <mxCell id="krZS6GcamqoiTXPoguWi-1" value="&lt;div style=&quot;&quot;&gt;Labeled regions of interest to be used as training / control data&lt;br&gt;&lt;/div&gt;" style="text;html=1;strokeColor=none;fillColor=#d5e8d4;align=center;verticalAlign=middle;rounded=0;whiteSpace=wrap;spacing=2;fontSize=6;labelBackgroundColor=none;" vertex="1" parent="Lx3dMDMzQVTXeGKKECox-19">
          <mxGeometry x="776" y="243" width="89" height="20" as="geometry" />
        </mxCell>
        <mxCell id="Lx3dMDMzQVTXeGKKECox-25" value="&lt;div&gt;Applying classification algorithms to identify specific materials within the hyperspectral data,&amp;nbsp;&lt;span style=&quot;background-color: initial;&quot;&gt;validation and postprocessing&lt;/span&gt;&lt;br&gt;&lt;/div&gt;" style="swimlane;html=1;startSize=58;horizontal=0;whiteSpace=wrap;" vertex="1" parent="Lx3dMDMzQVTXeGKKECox-1">
          <mxGeometry x="170" y="-3650" width="1800" height="300" as="geometry" />
        </mxCell>
        <UserObject label="&lt;h6 style=&quot;line-height: 90%;&quot;&gt;&lt;font style=&quot;&quot;&gt;&lt;span style=&quot;font-size: 8px; font-weight: 400;&quot;&gt;Use supervised machine learning techniques, to classify input data into predefined classes based on labeled data and&amp;nbsp;&lt;/span&gt;&lt;/font&gt;&lt;span style=&quot;font-weight: normal;&quot;&gt;evaluate classification accuracy/conduct error analysis, by performing cross-validation and producing&amp;nbsp; a confusion matrix&lt;/span&gt;&amp;nbsp;&lt;span style=&quot;background-color: initial; font-weight: normal; font-size: 8px;&quot;&gt;&lt;a href=&quot;https://usage.geocat.live/catalogue/srv/eng/catalog.search#/metadata/3979c72d-2ab2-43d0-a0c2-2170b5fcf6f8&quot;&gt;Classification Algorithm&lt;/a&gt;&amp;nbsp;and&amp;nbsp;&lt;/span&gt;&amp;nbsp;&lt;a href=&quot;https://usage.geocat.live/catalogue/srv/eng/catalog.search#/metadata/baed5c00-3e28-4fac-9d88-e9c4657d2d86&quot; style=&quot;background-color: initial; font-weight: normal; font-size: 8px;&quot;&gt;Validation algorithms&lt;/a&gt;&lt;/h6&gt;&lt;p&gt;&lt;/p&gt;" id="Lx3dMDMzQVTXeGKKECox-27">
          <mxCell style="points=[[0.25,0,0],[0.5,0,0],[0.75,0,0],[1,0.25,0],[1,0.5,0],[1,0.75,0],[0.75,1,0],[0.5,1,0],[0.25,1,0],[0,0.75,0],[0,0.5,0],[0,0.25,0]];shape=mxgraph.bpmn.task;whiteSpace=wrap;rectStyle=rounded;size=10;html=1;container=1;expand=0;collapsible=0;taskMarker=abstract;fillColor=#ff9129;" vertex="1" parent="Lx3dMDMzQVTXeGKKECox-25">
            <mxGeometry x="930" y="80" width="220" height="70" as="geometry" />
          </mxCell>
        </UserObject>
        <UserObject label="&lt;div style=&quot;&quot;&gt;&lt;div style=&quot;&quot;&gt;&lt;span style=&quot;font-size: 8px; font-family: Arial; background-color: initial;&quot;&gt;&lt;font color=&quot;#33001a&quot;&gt;Surface material dataset&lt;/font&gt;&lt;/span&gt;&lt;/div&gt;&lt;div style=&quot;&quot;&gt;&lt;span style=&quot;font-size: 8px; font-family: Arial; background-color: initial;&quot;&gt;&amp;nbsp;&lt;/span&gt;&lt;a style=&quot;font-size: 8px; font-family: Arial; background-color: initial;&quot; href=&quot;https://usage.geocat.live/catalogue/srv/eng/catalog.search#/metadata/200b7e3e-4e79-4300-ab9d-e63ebea05974&quot;&gt;link to dataset metadata&lt;/a&gt;&lt;br&gt;&lt;/div&gt;&lt;/div&gt;" id="Lx3dMDMzQVTXeGKKECox-31">
          <mxCell style="shape=mxgraph.bpmn.data;labelPosition=center;verticalLabelPosition=bottom;align=center;verticalAlign=top;size=18;html=1;fillColor=#A680B8;" vertex="1" parent="Lx3dMDMzQVTXeGKKECox-25">
            <mxGeometry x="1090" y="187" width="28" height="34" as="geometry" />
          </mxCell>
        </UserObject>
        <mxCell id="Lx3dMDMzQVTXeGKKECox-32" style="edgeStyle=orthogonalEdgeStyle;rounded=0;orthogonalLoop=1;jettySize=auto;html=1;entryX=0;entryY=0;entryDx=6.5;entryDy=0;entryPerimeter=0;dashed=1;exitX=0.75;exitY=1;exitDx=0;exitDy=0;exitPerimeter=0;" edge="1" parent="Lx3dMDMzQVTXeGKKECox-25" source="Lx3dMDMzQVTXeGKKECox-27" target="Lx3dMDMzQVTXeGKKECox-31">
          <mxGeometry relative="1" as="geometry" />
        </mxCell>
        <mxCell id="krZS6GcamqoiTXPoguWi-4" value="&lt;div style=&quot;&quot;&gt;Raster of the whole area classified based on materials&lt;br&gt;&lt;/div&gt;" style="text;html=1;strokeColor=none;fillColor=#d5e8d4;align=center;verticalAlign=middle;rounded=0;whiteSpace=wrap;spacing=2;fontSize=6;labelBackgroundColor=none;" vertex="1" parent="Lx3dMDMzQVTXeGKKECox-25">
          <mxGeometry x="1061" y="257" width="89" height="20" as="geometry" />
        </mxCell>
        <UserObject label="&lt;div style=&quot;&quot;&gt;&lt;div style=&quot;&quot;&gt;&lt;font face=&quot;Arial&quot;&gt;&lt;span style=&quot;font-size: 8px;&quot;&gt;Validation report&lt;/span&gt;&lt;/font&gt;&lt;br&gt;&lt;/div&gt;&lt;div style=&quot;font-size: 8px;&quot;&gt;&lt;font style=&quot;font-size: 8px;&quot; face=&quot;Arial&quot;&gt;&amp;nbsp; &lt;a href=&quot;https://usage.geocat.live/catalogue/srv/eng/catalog.search#/metadata/84020065-66b0-4e71-a914-26170799cadd&quot;&gt;link to dataset metadata&lt;/a&gt;&lt;/font&gt;&lt;/div&gt;&lt;/div&gt;" id="VDrF4sD4afR3QMWUaSCJ-9">
          <mxCell style="shape=mxgraph.bpmn.data;labelPosition=center;verticalLabelPosition=bottom;align=center;verticalAlign=top;size=11;html=1;fillColor=default;" vertex="1" parent="Lx3dMDMzQVTXeGKKECox-25">
            <mxGeometry x="950" y="190" width="30" height="31" as="geometry" />
          </mxCell>
        </UserObject>
        <mxCell id="VDrF4sD4afR3QMWUaSCJ-10" style="edgeStyle=orthogonalEdgeStyle;rounded=0;orthogonalLoop=1;jettySize=auto;html=1;entryX=0;entryY=0;entryDx=14;entryDy=0;entryPerimeter=0;dashed=1;exitX=0.25;exitY=1;exitDx=0;exitDy=0;exitPerimeter=0;" edge="1" parent="Lx3dMDMzQVTXeGKKECox-25" source="Lx3dMDMzQVTXeGKKECox-27" target="VDrF4sD4afR3QMWUaSCJ-9">
          <mxGeometry relative="1" as="geometry" />
        </mxCell>
        <mxCell id="Lx3dMDMzQVTXeGKKECox-60" style="edgeStyle=orthogonalEdgeStyle;rounded=0;orthogonalLoop=1;jettySize=auto;html=1;entryX=0.25;entryY=0;entryDx=0;entryDy=0;entryPerimeter=0;dashed=1;exitX=0;exitY=0;exitDx=30;exitDy=24.5;exitPerimeter=0;" edge="1" parent="Lx3dMDMzQVTXeGKKECox-1" source="Lx3dMDMzQVTXeGKKECox-12" target="Lx3dMDMzQVTXeGKKECox-20">
          <mxGeometry relative="1" as="geometry" />
        </mxCell>
        <mxCell id="Lx3dMDMzQVTXeGKKECox-64" style="edgeStyle=orthogonalEdgeStyle;rounded=0;orthogonalLoop=1;jettySize=auto;html=1;entryX=0.5;entryY=0;entryDx=0;entryDy=0;entryPerimeter=0;" edge="1" parent="Lx3dMDMzQVTXeGKKECox-1" source="Lx3dMDMzQVTXeGKKECox-20" target="Lx3dMDMzQVTXeGKKECox-27">
          <mxGeometry relative="1" as="geometry" />
        </mxCell>
        <mxCell id="simqcxI7T72nkkA-hT8v-3" style="edgeStyle=orthogonalEdgeStyle;rounded=0;orthogonalLoop=1;jettySize=auto;html=1;entryX=0;entryY=0.5;entryDx=0;entryDy=0;entryPerimeter=0;exitX=0.5;exitY=1;exitDx=0;exitDy=0;exitPerimeter=0;dashed=1;" edge="1" parent="Lx3dMDMzQVTXeGKKECox-1" source="Lx3dMDMzQVTXeGKKECox-10" target="Lx3dMDMzQVTXeGKKECox-20">
          <mxGeometry relative="1" as="geometry" />
        </mxCell>
        <mxCell id="simqcxI7T72nkkA-hT8v-4" style="edgeStyle=orthogonalEdgeStyle;rounded=0;orthogonalLoop=1;jettySize=auto;html=1;entryX=0.5;entryY=0;entryDx=0;entryDy=0;entryPerimeter=0;exitX=1;exitY=0.5;exitDx=0;exitDy=0;exitPerimeter=0;" edge="1" parent="Lx3dMDMzQVTXeGKKECox-1" source="simqcxI7T72nkkA-hT8v-0" target="Lx3dMDMzQVTXeGKKECox-20">
          <mxGeometry relative="1" as="geometry" />
        </mxCell>
        <mxCell id="krZS6GcamqoiTXPoguWi-2" style="edgeStyle=orthogonalEdgeStyle;rounded=0;orthogonalLoop=1;jettySize=auto;html=1;entryX=0.25;entryY=0;entryDx=0;entryDy=0;entryPerimeter=0;exitX=0;exitY=0;exitDx=28;exitDy=24.5;exitPerimeter=0;dashed=1;" edge="1" parent="Lx3dMDMzQVTXeGKKECox-1" source="Lx3dMDMzQVTXeGKKECox-21" target="Lx3dMDMzQVTXeGKKECox-27">
          <mxGeometry relative="1" as="geometry" />
        </mxCell>
        <mxCell id="krZS6GcamqoiTXPoguWi-3" style="edgeStyle=orthogonalEdgeStyle;rounded=0;orthogonalLoop=1;jettySize=auto;html=1;entryX=0;entryY=0.5;entryDx=0;entryDy=0;entryPerimeter=0;exitX=0;exitY=0.5;exitDx=0;exitDy=0;exitPerimeter=0;dashed=1;" edge="1" parent="Lx3dMDMzQVTXeGKKECox-1" source="Lx3dMDMzQVTXeGKKECox-10" target="Lx3dMDMzQVTXeGKKECox-27">
          <mxGeometry relative="1" as="geometry">
            <Array as="points">
              <mxPoint x="360" y="-4165" />
              <mxPoint x="360" y="-3535" />
            </Array>
          </mxGeometry>
        </mxCell>
        <mxCell id="krZS6GcamqoiTXPoguWi-5" style="edgeStyle=orthogonalEdgeStyle;rounded=0;orthogonalLoop=1;jettySize=auto;html=1;exitX=1;exitY=0.5;exitDx=0;exitDy=0;exitPerimeter=0;" edge="1" parent="Lx3dMDMzQVTXeGKKECox-1" source="Lx3dMDMzQVTXeGKKECox-27" target="Lx3dMDMzQVTXeGKKECox-35">
          <mxGeometry relative="1" as="geometry">
            <Array as="points">
              <mxPoint x="1400" y="-3535" />
            </Array>
          </mxGeometry>
        </mxCell>
        <mxCell id="krZS6GcamqoiTXPoguWi-6" style="edgeStyle=orthogonalEdgeStyle;rounded=0;orthogonalLoop=1;jettySize=auto;html=1;dashed=1;entryX=0.358;entryY=0.046;entryDx=0;entryDy=0;entryPerimeter=0;" edge="1" parent="Lx3dMDMzQVTXeGKKECox-1" source="Lx3dMDMzQVTXeGKKECox-31" target="Lx3dMDMzQVTXeGKKECox-35">
          <mxGeometry relative="1" as="geometry">
            <mxPoint x="1350" y="-3220" as="targetPoint" />
            <Array as="points">
              <mxPoint x="1274" y="-3321" />
              <mxPoint x="1350" y="-3321" />
            </Array>
          </mxGeometry>
        </mxCell>
        <mxCell id="krZS6GcamqoiTXPoguWi-11" style="edgeStyle=orthogonalEdgeStyle;rounded=0;orthogonalLoop=1;jettySize=auto;html=1;entryX=0.5;entryY=0;entryDx=0;entryDy=0;entryPerimeter=0;exitX=1;exitY=0.5;exitDx=0;exitDy=0;exitPerimeter=0;" edge="1" parent="Lx3dMDMzQVTXeGKKECox-1" source="Lx3dMDMzQVTXeGKKECox-35" target="Lx3dMDMzQVTXeGKKECox-58">
          <mxGeometry relative="1" as="geometry">
            <mxPoint x="1580" y="-3290" as="sourcePoint" />
          </mxGeometry>
        </mxCell>
        <mxCell id="VDrF4sD4afR3QMWUaSCJ-2" style="edgeStyle=orthogonalEdgeStyle;rounded=0;orthogonalLoop=1;jettySize=auto;html=1;entryX=0.25;entryY=0;entryDx=0;entryDy=0;entryPerimeter=0;dashed=1;" edge="1" parent="Lx3dMDMzQVTXeGKKECox-1" source="VDrF4sD4afR3QMWUaSCJ-0" target="Lx3dMDMzQVTXeGKKECox-58">
          <mxGeometry relative="1" as="geometry">
            <Array as="points">
              <mxPoint x="1517" y="-3100" />
            </Array>
          </mxGeometry>
        </mxCell>
        <mxCell id="Lx3dMDMzQVTXeGKKECox-34" value="&lt;div&gt;Urban heat island/ hotspots detection&amp;nbsp;&lt;br&gt;&lt;/div&gt;" style="swimlane;html=1;startSize=58;horizontal=0;whiteSpace=wrap;" vertex="1" parent="Lx3dMDMzQVTXeGKKECox-1">
          <mxGeometry x="170" y="-3350" width="1800" height="390" as="geometry" />
        </mxCell>
        <mxCell id="Lx3dMDMzQVTXeGKKECox-35" value="&lt;h6 style=&quot;line-height: 90%;&quot;&gt;&lt;span style=&quot;font-family: Arial; font-size: 8px; font-weight: 400;&quot;&gt;Urban heat Island detection using&amp;nbsp;&lt;/span&gt;&lt;span style=&quot;font-weight: 400; background-color: initial; font-size: 8px;&quot;&gt;&lt;font face=&quot;Arial&quot;&gt;algorithms that produce Land surface temperature raster layer at 30m including emissivity correction from hyperspectral images&lt;/font&gt;&lt;/span&gt;&lt;font style=&quot;font-size: 12px; font-weight: 400; background-color: initial;&quot; face=&quot;Arial&quot;&gt;&lt;span style=&quot;font-size: 8px;&quot;&gt;.&lt;/span&gt;&lt;/font&gt;&lt;span style=&quot;font-family: Arial; font-size: 8px; font-weight: 400;&quot;&gt;:&amp;nbsp;&lt;/span&gt;&lt;b style=&quot;background-color: initial; font-size: 8px; font-family: Arial;&quot;&gt;&lt;a href=&quot;https://usage.geocat.live/catalogue/srv/eng/catalog.search#/metadata/64646d7a-906a-418e-8c29-708c110b81a0&quot;&gt;FBK_UHI_DETECTION&lt;/a&gt;&lt;/b&gt;&lt;/h6&gt;&lt;p&gt;&lt;/p&gt;" style="points=[[0.25,0,0],[0.5,0,0],[0.75,0,0],[1,0.25,0],[1,0.5,0],[1,0.75,0],[0.75,1,0],[0.5,1,0],[0.25,1,0],[0,0.75,0],[0,0.5,0],[0,0.25,0]];shape=mxgraph.bpmn.task;whiteSpace=wrap;rectStyle=rounded;size=10;html=1;container=1;expand=0;collapsible=0;taskMarker=abstract;fillColor=#ff9129;" vertex="1" parent="Lx3dMDMzQVTXeGKKECox-34">
          <mxGeometry x="1112" y="137.5" width="190" height="42.5" as="geometry" />
        </mxCell>
        <UserObject label="&lt;div style=&quot;&quot;&gt;&lt;div style=&quot;&quot;&gt;&lt;span style=&quot;font-size: 8px; font-family: Arial; background-color: initial;&quot;&gt;&lt;font color=&quot;#33001a&quot;&gt;Air Temperature raster&lt;/font&gt;&lt;/span&gt;&lt;/div&gt;&lt;div style=&quot;&quot;&gt;&lt;span style=&quot;font-size: 8px; font-family: Arial; background-color: initial;&quot;&gt;&amp;nbsp;&lt;/span&gt;&lt;a style=&quot;font-size: 8px; font-family: Arial; background-color: initial;&quot; href=&quot;https://usage.geocat.live/catalogue/srv/eng/catalog.search#/metadata/c4548cee-2ede-4065-946e-f1ad4dfd8f1b&quot;&gt;link to dataset metadata&lt;/a&gt;&lt;br&gt;&lt;/div&gt;&lt;/div&gt;" id="VDrF4sD4afR3QMWUaSCJ-0">
          <mxCell style="shape=mxgraph.bpmn.data;labelPosition=center;verticalLabelPosition=bottom;align=center;verticalAlign=top;size=15;html=1;fillColor=#A680B8;" vertex="1" parent="Lx3dMDMzQVTXeGKKECox-34">
            <mxGeometry x="1231.75" y="220" width="28" height="34" as="geometry" />
          </mxCell>
        </UserObject>
        <mxCell id="VDrF4sD4afR3QMWUaSCJ-1" style="edgeStyle=orthogonalEdgeStyle;rounded=0;orthogonalLoop=1;jettySize=auto;html=1;entryX=0;entryY=0;entryDx=6.5;entryDy=0;entryPerimeter=0;dashed=1;exitX=0.668;exitY=0.975;exitDx=0;exitDy=0;exitPerimeter=0;" edge="1" parent="Lx3dMDMzQVTXeGKKECox-34" source="Lx3dMDMzQVTXeGKKECox-35" target="VDrF4sD4afR3QMWUaSCJ-0">
          <mxGeometry relative="1" as="geometry">
            <mxPoint x="1238" y="99" as="sourcePoint" />
          </mxGeometry>
        </mxCell>
        <UserObject label="&lt;div style=&quot;&quot;&gt;&lt;div style=&quot;&quot;&gt;&lt;span style=&quot;font-size: 8px; font-family: Arial; background-color: initial;&quot;&gt;&lt;font style=&quot;&quot; color=&quot;#33001a&quot;&gt;Weather stations&lt;/font&gt;&lt;/span&gt;&lt;/div&gt;&lt;div style=&quot;&quot;&gt;&lt;span style=&quot;font-size: 8px; font-family: Arial; background-color: initial;&quot;&gt;&amp;nbsp;&lt;/span&gt;&lt;a style=&quot;font-size: 8px; font-family: Arial; background-color: initial;&quot; href=&quot;https://geonetwork.sdi.sadl.kuleuven.be/geonetwork/srv/eng/catalog.search#/metadata/cb5317bf-2e1e-43f2-8959-d10af1e8f0b6&quot;&gt;link to dataset metadata&lt;/a&gt;&lt;br&gt;&lt;/div&gt;&lt;/div&gt;" id="awCprGj0qquMLpjBVsRM-1">
          <mxCell style="shape=mxgraph.bpmn.data;labelPosition=center;verticalLabelPosition=bottom;align=center;verticalAlign=top;size=15;html=1;" vertex="1" parent="Lx3dMDMzQVTXeGKKECox-34">
            <mxGeometry x="1350" y="30" width="28" height="34" as="geometry" />
          </mxCell>
        </UserObject>
        <mxCell id="awCprGj0qquMLpjBVsRM-2" style="edgeStyle=orthogonalEdgeStyle;rounded=0;orthogonalLoop=1;jettySize=auto;html=1;dashed=1;" edge="1" parent="Lx3dMDMzQVTXeGKKECox-34" source="awCprGj0qquMLpjBVsRM-1">
          <mxGeometry relative="1" as="geometry">
            <mxPoint x="1270" y="136" as="targetPoint" />
            <Array as="points">
              <mxPoint x="1270" y="47" />
              <mxPoint x="1270" y="136" />
            </Array>
          </mxGeometry>
        </mxCell>
        <UserObject label="&lt;div style=&quot;line-height: 100%;&quot;&gt;&lt;div style=&quot;line-height: 100%;&quot;&gt;&lt;span style=&quot;background-color: initial; font-size: 8px;&quot;&gt;NCEP/NCAR Reanalysis Data, Water Vapor&lt;/span&gt;&lt;/div&gt;&lt;div style=&quot;line-height: 100%;&quot;&gt;&lt;a href=&quot;https://developers.google.com/earth-engine/datasets/catalog/LANDSAT_LC08_C02_T1_L2#description&quot; style=&quot;font-size: 8px; background-color: initial;&quot;&gt;(link to dataset metadata)&lt;/a&gt;&lt;br&gt;&lt;/div&gt;&lt;/div&gt;" id="h5Hy6DQu8ECGM6F2DIR--3">
          <mxCell style="shape=mxgraph.bpmn.data;labelPosition=center;verticalLabelPosition=bottom;align=center;verticalAlign=top;size=15;html=1;" vertex="1" parent="Lx3dMDMzQVTXeGKKECox-34">
            <mxGeometry x="1010" y="250" width="30" height="30" as="geometry" />
          </mxCell>
        </UserObject>
        <UserObject label="&lt;div style=&quot;line-height: 100%; font-size: 8px;&quot;&gt;&lt;div style=&quot;line-height: 100%;&quot;&gt;Satellite Landsat TIRS images SR&lt;/div&gt;&lt;div style=&quot;line-height: 100%;&quot;&gt;&lt;a href=&quot;https://developers.google.com/earth-engine/datasets/catalog/LANDSAT_LC08_C02_T1_L2#description&quot;&gt;&amp;nbsp;(link to dataset metadata)&lt;/a&gt;&lt;/div&gt;&lt;/div&gt;" id="h5Hy6DQu8ECGM6F2DIR--4">
          <mxCell style="shape=mxgraph.bpmn.data;labelPosition=center;verticalLabelPosition=bottom;align=center;verticalAlign=top;size=15;html=1;" vertex="1" parent="Lx3dMDMzQVTXeGKKECox-34">
            <mxGeometry x="920" y="150" width="30" height="30" as="geometry" />
          </mxCell>
        </UserObject>
        <UserObject label="&lt;div style=&quot;line-height: 100%; font-size: 8px;&quot;&gt;&lt;div style=&quot;line-height: 100%;&quot;&gt;Satellite Landsat TIRS images TOA Reflectance&lt;/div&gt;&lt;div style=&quot;line-height: 100%;&quot;&gt;&lt;a href=&quot;https://developers.google.com/earth-engine/datasets/catalog/LANDSAT_LC08_C02_T1_TOA#description&quot;&gt;&amp;nbsp;(link to dataset metadata)&lt;/a&gt;&lt;/div&gt;&lt;/div&gt;" id="h5Hy6DQu8ECGM6F2DIR--5">
          <mxCell style="shape=mxgraph.bpmn.data;labelPosition=center;verticalLabelPosition=bottom;align=center;verticalAlign=top;size=15;html=1;" vertex="1" parent="Lx3dMDMzQVTXeGKKECox-34">
            <mxGeometry x="970" y="40" width="30" height="30" as="geometry" />
          </mxCell>
        </UserObject>
        <mxCell id="h5Hy6DQu8ECGM6F2DIR--6" style="edgeStyle=orthogonalEdgeStyle;rounded=0;orthogonalLoop=1;jettySize=auto;html=1;entryX=0.25;entryY=0;entryDx=0;entryDy=0;entryPerimeter=0;dashed=1;" edge="1" parent="Lx3dMDMzQVTXeGKKECox-34" source="h5Hy6DQu8ECGM6F2DIR--5" target="Lx3dMDMzQVTXeGKKECox-35">
          <mxGeometry relative="1" as="geometry" />
        </mxCell>
        <mxCell id="h5Hy6DQu8ECGM6F2DIR--8" style="edgeStyle=orthogonalEdgeStyle;rounded=0;orthogonalLoop=1;jettySize=auto;html=1;entryX=0;entryY=0.5;entryDx=0;entryDy=0;entryPerimeter=0;dashed=1;" edge="1" parent="Lx3dMDMzQVTXeGKKECox-34" source="h5Hy6DQu8ECGM6F2DIR--3" target="Lx3dMDMzQVTXeGKKECox-35">
          <mxGeometry relative="1" as="geometry" />
        </mxCell>
        <mxCell id="h5Hy6DQu8ECGM6F2DIR--9" style="edgeStyle=orthogonalEdgeStyle;rounded=0;orthogonalLoop=1;jettySize=auto;html=1;entryX=0.097;entryY=0.02;entryDx=0;entryDy=0;entryPerimeter=0;dashed=1;" edge="1" parent="Lx3dMDMzQVTXeGKKECox-34" source="h5Hy6DQu8ECGM6F2DIR--4" target="Lx3dMDMzQVTXeGKKECox-35">
          <mxGeometry relative="1" as="geometry" />
        </mxCell>
        <mxCell id="vmcBFHTaCw1k97PkgB5D-0" value="&lt;div style=&quot;&quot;&gt;Raster of the whole area classified based on Hot spots mapping&lt;br&gt;&lt;/div&gt;" style="text;html=1;strokeColor=none;fillColor=#d5e8d4;align=center;verticalAlign=middle;rounded=0;whiteSpace=wrap;spacing=2;fontSize=6;labelBackgroundColor=none;" vertex="1" parent="Lx3dMDMzQVTXeGKKECox-34">
          <mxGeometry x="1201.25" y="290" width="89" height="20" as="geometry" />
        </mxCell>
        <mxCell id="Lx3dMDMzQVTXeGKKECox-56" value="&lt;div&gt;Determine priority areas for interventions based on vulnerability mapping&lt;/div&gt;" style="swimlane;html=1;startSize=58;horizontal=0;whiteSpace=wrap;" vertex="1" parent="Lx3dMDMzQVTXeGKKECox-1">
          <mxGeometry x="170" y="-2960" width="1800" height="370" as="geometry" />
        </mxCell>
        <UserObject label="&lt;h6 style=&quot;line-height: 90%;&quot;&gt;FBK_UHI_vulnerability.&amp;nbsp;&lt;span style=&quot;font-size: 8px; font-weight: 400;&quot;&gt;Automatic low level of detail (10m / 50m resolution) UHI simulation tool to generate a list of vulnerabilities among the whole list of hotspots identified (based on a set of parameters to be applied to all hotspots)&amp;nbsp;&lt;/span&gt;&lt;font style=&quot;font-size: 8px;&quot; color=&quot;#ff3333&quot;&gt;&lt;a href=&quot;https://usage.geocat.live/catalogue/srv/eng/catalog.search#/metadata/929158a4-eb6d-41c7-b8c5-4c3e17e87d6b&quot;&gt;Link to tool metadata&lt;/a&gt;&lt;/font&gt;&lt;br&gt;&lt;/h6&gt;&lt;p&gt;&lt;/p&gt;" id="Lx3dMDMzQVTXeGKKECox-58">
          <mxCell style="points=[[0.25,0,0],[0.5,0,0],[0.75,0,0],[1,0.25,0],[1,0.5,0],[1,0.75,0],[0.75,1,0],[0.5,1,0],[0.25,1,0],[0,0.75,0],[0,0.5,0],[0,0.25,0]];shape=mxgraph.bpmn.task;whiteSpace=wrap;rectStyle=rounded;size=10;html=1;container=1;expand=0;collapsible=0;taskMarker=abstract;fillColor=#ff9129;" vertex="1" parent="Lx3dMDMzQVTXeGKKECox-56">
            <mxGeometry x="1302" y="110" width="178" height="50" as="geometry" />
          </mxCell>
        </UserObject>
        <mxCell id="pBVGRH1MDpd358sIF_8C-13" value="&lt;div style=&quot;&quot;&gt;Vector&amp;nbsp; represetation of the vulnerability index of Leuven, showing areas of priority for interventions&amp;nbsp;&lt;br&gt;&lt;/div&gt;" style="text;html=1;strokeColor=none;fillColor=#d5e8d4;align=center;verticalAlign=middle;rounded=0;whiteSpace=wrap;spacing=2;fontSize=6;labelBackgroundColor=none;" vertex="1" parent="Lx3dMDMzQVTXeGKKECox-56">
          <mxGeometry x="1350.5" y="270" width="89" height="30" as="geometry" />
        </mxCell>
        <UserObject label="&lt;div style=&quot;line-height: 100%; font-size: 8px;&quot;&gt;&lt;div style=&quot;line-height: 100%;&quot;&gt;&lt;div style=&quot;line-height: 100%;&quot;&gt;&lt;div style=&quot;line-height: 100%;&quot;&gt;Vulnerable population density:&lt;/div&gt;&lt;div style=&quot;line-height: 100%;&quot;&gt;n. of vulnerable inhabitants&lt;/div&gt;&lt;div style=&quot;line-height: 100%;&quot;&gt;(kids and over 75 people)&lt;/div&gt;&lt;div&gt;&lt;a href=&quot;https://geonetwork.sdi.sadl.kuleuven.be/geonetwork/srv/eng/catalog.search#/metadata/0202b8dd-1c7e-4331-8ba7-35e1fef4037a&quot; style=&quot;background-color: initial;&quot;&gt;link to dataset metadata&lt;/a&gt;&lt;br&gt;&lt;/div&gt;&lt;/div&gt;&lt;/div&gt;&lt;/div&gt;" id="pBVGRH1MDpd358sIF_8C-17">
          <mxCell style="shape=mxgraph.bpmn.data;labelPosition=center;verticalLabelPosition=bottom;align=center;verticalAlign=top;size=15;html=1;" vertex="1" parent="Lx3dMDMzQVTXeGKKECox-56">
            <mxGeometry x="1190" y="10" width="30" height="30" as="geometry" />
          </mxCell>
        </UserObject>
        <UserObject label="&lt;div style=&quot;line-height: 100%; font-size: 8px;&quot;&gt;&lt;div style=&quot;line-height: 100%;&quot;&gt;&lt;div style=&quot;line-height: 100%;&quot;&gt;&lt;div style=&quot;line-height: 100%;&quot;&gt;&lt;div style=&quot;line-height: 100%;&quot;&gt;&lt;div style=&quot;line-height: 100%;&quot;&gt;Ownership type (public/private)&lt;/div&gt;&lt;div style=&quot;line-height: 100%;&quot;&gt;Cadaster&lt;/div&gt;&lt;/div&gt;&lt;/div&gt;&lt;div&gt;&lt;span style=&quot;background-color: initial;&quot;&gt;&amp;nbsp;&lt;/span&gt;&lt;a style=&quot;background-color: initial;&quot; href=&quot;https://usage.geocat.live/catalogue/srv/eng/catalog.search#/metadata/7C823055-7BBF-4D62-B55E-F85C30D53162&quot;&gt;link to dataset metadata&lt;/a&gt;&lt;br&gt;&lt;/div&gt;&lt;/div&gt;&lt;/div&gt;&lt;/div&gt;" id="pBVGRH1MDpd358sIF_8C-18">
          <mxCell style="shape=mxgraph.bpmn.data;labelPosition=center;verticalLabelPosition=bottom;align=center;verticalAlign=top;size=15;html=1;" vertex="1" parent="Lx3dMDMzQVTXeGKKECox-56">
            <mxGeometry x="1500" y="10" width="30" height="30" as="geometry" />
          </mxCell>
        </UserObject>
        <UserObject label="&lt;div style=&quot;&quot;&gt;&lt;div style=&quot;&quot;&gt;&lt;font face=&quot;Arial&quot;&gt;&lt;span style=&quot;font-size: 8px;&quot;&gt;Vulnerability index map&lt;/span&gt;&lt;/font&gt;&lt;/div&gt;&lt;div style=&quot;font-size: 8px;&quot;&gt;&lt;font style=&quot;font-size: 8px;&quot; face=&quot;Arial&quot;&gt;&amp;nbsp;&amp;nbsp;&lt;a href=&quot;https://usage.geocat.live/catalogue/srv/eng/catalog.search#/metadata/6f454b69-57f3-49a2-ae08-47aadf03435a&quot;&gt;link to dataset metadata&lt;/a&gt;&lt;/font&gt;&lt;/div&gt;&lt;/div&gt;" id="pBVGRH1MDpd358sIF_8C-20">
          <mxCell style="shape=mxgraph.bpmn.data;labelPosition=center;verticalLabelPosition=bottom;align=center;verticalAlign=top;size=15;html=1;fillColor=#A680B8;" vertex="1" parent="Lx3dMDMzQVTXeGKKECox-56">
            <mxGeometry x="1377" y="200" width="28" height="34" as="geometry" />
          </mxCell>
        </UserObject>
        <UserObject label="&lt;div style=&quot;font-size: 8px;&quot;&gt;&lt;div style=&quot;&quot;&gt;&lt;div&gt;Population density&lt;/div&gt;&lt;div&gt;(resolution &amp;gt; 1/hot spot dimension)&lt;/div&gt;&lt;div&gt;&lt;a style=&quot;font-family: Arial; background-color: initial;&quot; href=&quot;https://www.geo.be/catalog/details/0202b8dd-1c7e-4331-8ba7-35e1fef4037a?l=nl&quot;&gt;link to dataset metadata&lt;/a&gt;&lt;/div&gt;&lt;/div&gt;&lt;/div&gt;" id="pBVGRH1MDpd358sIF_8C-21">
          <mxCell style="shape=mxgraph.bpmn.data;labelPosition=center;verticalLabelPosition=bottom;align=center;verticalAlign=top;size=15;html=1;" vertex="1" parent="Lx3dMDMzQVTXeGKKECox-56">
            <mxGeometry x="1140" y="118" width="30" height="34" as="geometry" />
          </mxCell>
        </UserObject>
        <mxCell id="pBVGRH1MDpd358sIF_8C-24" style="edgeStyle=orthogonalEdgeStyle;rounded=0;orthogonalLoop=1;jettySize=auto;html=1;entryX=0;entryY=0;entryDx=13;entryDy=0;entryPerimeter=0;dashed=1;" edge="1" parent="Lx3dMDMzQVTXeGKKECox-56" source="Lx3dMDMzQVTXeGKKECox-58" target="pBVGRH1MDpd358sIF_8C-20">
          <mxGeometry relative="1" as="geometry" />
        </mxCell>
        <mxCell id="pBVGRH1MDpd358sIF_8C-27" style="edgeStyle=orthogonalEdgeStyle;rounded=0;orthogonalLoop=1;jettySize=auto;html=1;entryX=0.113;entryY=0.054;entryDx=0;entryDy=0;entryPerimeter=0;dashed=1;" edge="1" parent="Lx3dMDMzQVTXeGKKECox-56" source="pBVGRH1MDpd358sIF_8C-17" target="Lx3dMDMzQVTXeGKKECox-58">
          <mxGeometry relative="1" as="geometry" />
        </mxCell>
        <mxCell id="pBVGRH1MDpd358sIF_8C-28" style="edgeStyle=orthogonalEdgeStyle;rounded=0;orthogonalLoop=1;jettySize=auto;html=1;entryX=0;entryY=0.5;entryDx=0;entryDy=0;entryPerimeter=0;dashed=1;" edge="1" parent="Lx3dMDMzQVTXeGKKECox-56" source="pBVGRH1MDpd358sIF_8C-21" target="Lx3dMDMzQVTXeGKKECox-58">
          <mxGeometry relative="1" as="geometry" />
        </mxCell>
        <mxCell id="pBVGRH1MDpd358sIF_8C-29" style="edgeStyle=orthogonalEdgeStyle;rounded=0;orthogonalLoop=1;jettySize=auto;html=1;entryX=0.73;entryY=-0.025;entryDx=0;entryDy=0;entryPerimeter=0;dashed=1;" edge="1" parent="Lx3dMDMzQVTXeGKKECox-56" source="pBVGRH1MDpd358sIF_8C-18" target="Lx3dMDMzQVTXeGKKECox-58">
          <mxGeometry relative="1" as="geometry" />
        </mxCell>
        <mxCell id="VDrF4sD4afR3QMWUaSCJ-14" style="edgeStyle=orthogonalEdgeStyle;rounded=0;orthogonalLoop=1;jettySize=auto;html=1;dashed=1;" edge="1" parent="Lx3dMDMzQVTXeGKKECox-1" source="Lx3dMDMzQVTXeGKKECox-31" target="pBVGRH1MDpd358sIF_8C-2">
          <mxGeometry relative="1" as="geometry">
            <Array as="points">
              <mxPoint x="1850" y="-3440" />
              <mxPoint x="1850" y="-2850" />
              <mxPoint x="1851" y="-2850" />
            </Array>
          </mxGeometry>
        </mxCell>
        <mxCell id="pBVGRH1MDpd358sIF_8C-25" style="edgeStyle=orthogonalEdgeStyle;rounded=0;orthogonalLoop=1;jettySize=auto;html=1;dashed=1;" edge="1" parent="Lx3dMDMzQVTXeGKKECox-1" source="pBVGRH1MDpd358sIF_8C-20">
          <mxGeometry relative="1" as="geometry">
            <mxPoint x="1726" y="-2450" as="targetPoint" />
          </mxGeometry>
        </mxCell>
        <mxCell id="pBVGRH1MDpd358sIF_8C-26" style="edgeStyle=orthogonalEdgeStyle;rounded=0;orthogonalLoop=1;jettySize=auto;html=1;dashed=1;" edge="1" parent="Lx3dMDMzQVTXeGKKECox-1" source="VDrF4sD4afR3QMWUaSCJ-0">
          <mxGeometry relative="1" as="geometry">
            <mxPoint x="1810" y="-2450" as="targetPoint" />
            <Array as="points">
              <mxPoint x="1810" y="-3113" />
            </Array>
          </mxGeometry>
        </mxCell>
        <mxCell id="g9PttlWTqTcfyy43YCSK-3" style="edgeStyle=orthogonalEdgeStyle;rounded=0;orthogonalLoop=1;jettySize=auto;html=1;" edge="1" parent="Lx3dMDMzQVTXeGKKECox-1" source="Lx3dMDMzQVTXeGKKECox-58" target="pBVGRH1MDpd358sIF_8C-2">
          <mxGeometry relative="1" as="geometry">
            <Array as="points">
              <mxPoint x="1780" y="-2820" />
            </Array>
          </mxGeometry>
        </mxCell>
      </root>
    </mxGraphModel>
  </diagram>
</mxfile>
